<?xml version="1.0" encoding="utf-8"?>
<!-- Generator: Adobe Illustrator 26.1.0, SVG Export Plug-In . SVG Version: 6.00 Build 0)  -->
<svg version="1.1" id="Layer_1" xmlns="http://www.w3.org/2000/svg" xmlns:xlink="http://www.w3.org/1999/xlink" x="0px" y="0px"
	 viewBox="0 0 1039.9 377.2" style="enable-background:new 0 0 1039.9 377.2;" xml:space="preserve">
<style type="text/css">
	.st0{fill:#1E3D5E;}
	.st1{font-family:'GillSans-SemiBold';}
	.st2{font-size:115px;}
</style>
<g>
	<path class="st0" d="M318,125.7c6.2,0,10.9,4.7,10.9,10.9v146.6c0,22.8-9.3,44-24.9,59c-15,15.5-36.3,24.9-59,24.9h-73.5
		c-22.8,0-44-9.3-59-24.9c-8.8-8.3-15.5-18.6-19.7-30H66.8c-12.9,0-24.9-5.7-33.1-14c-8.8-8.8-14-20.7-14-33.7v-36.8
		c0-12.9,5.2-24.3,14-33.1c8.3-8.8,20.2-14,33.1-14h20.7v-44c0-6.2,4.7-10.9,10.9-10.9L318,125.7L318,125.7z M87.5,201.8H66.8
		c-6.7,0-13.5,3.1-18.1,7.8c-4.7,4.7-7.8,11.4-7.8,18.1v36.8c0,7.3,3.1,14,7.8,18.6c4.7,4.7,11.4,7.3,18.1,7.3H88
		c-0.5-2.1-0.5-4.7-0.5-7.3L87.5,201.8L87.5,201.8z"/>
	<g>
		<path class="st0" d="M140.3,26.4c-4.6,6.7-8.8,14-11.4,21.7c-2.7,7.8-2.2,14.2,2.4,21c3.2,5.1,8.5,9.6,11.3,15.5
			c4.7,8.8,0.7,20-5.4,27.2c-1.4,1.7-3,3.3-4.8,4.6c0,0-0.8-0.6-0.8-0.6c1.1-4.2,2.2-8.1,2.8-12c0.5-3.6,1-7,0.4-10.5
			c-3.4-11.4-14.2-21.1-14.1-33.9c0.3-9.1,5.2-17.1,10.4-24.2c2.6-3.4,5.4-6.6,8.4-9.5L140.3,26.4L140.3,26.4z"/>
		<path class="st0" d="M215.6,8.5c-4.6,6.7-8.8,14-11.4,21.7c-2.7,7.8-2.2,14.2,2.4,21c3.2,5.1,8.5,9.6,11.3,15.5
			c4.7,8.8,0.7,20-5.4,27.2c-1.4,1.7-3,3.3-4.8,4.6c0,0-0.8-0.6-0.8-0.6c1.1-4.2,2.2-8.1,2.8-12c0.5-3.6,1-7,0.4-10.5
			C206.8,64,196,54.4,196.1,41.5c0.3-9.1,5.2-17.1,10.4-24.2c2.6-3.4,5.4-6.6,8.4-9.5L215.6,8.5L215.6,8.5z"/>
		<path class="st0" d="M290.9,26.4c-4.6,6.7-8.8,14-11.4,21.7c-2.7,7.8-2.2,14.2,2.4,21c3.2,5.1,8.5,9.6,11.3,15.5
			c4.7,8.8,0.7,20-5.4,27.2c-1.4,1.7-3,3.3-4.8,4.6c0,0-0.8-0.6-0.8-0.6c1.1-4.2,2.2-8.1,2.8-12c0.5-3.6,1-7,0.4-10.5
			c-3.4-11.4-14.2-21.1-14.1-33.9c0.3-9.1,5.2-17.1,10.4-24.2c2.6-3.4,5.4-6.6,8.4-9.5L290.9,26.4L290.9,26.4z"/>
	</g>
</g>
<text transform="matrix(1 0 0 1 352.7202 201.8385)"><tspan x="0" y="0" class="st1 st2">Thunder Mug</tspan><tspan x="0" y="138" class="st1 st2">Cafe</tspan></text>
</svg>
